# xmcd CD database file
#
# Track frame offsets:
#	150
#	17117
#	24377
#	48542
#	68520
#	79132
#	102267
#	108940
#	135910
#	161230
#
# Disc length: 2418 seconds
#
# Revision: 0
# Processed by: cddbd v1.5PL3 Copyright (c) Steve Scherf et al.
# Submitted via: CDex 1.51
#
DISCID=7609700a
DTITLE=Richy Pitch - Live At Home
DYEAR=2002
DGENRE=Hip-Hop
TTITLE0=Live At Home (Remake) Featuring EL DA SENSEI
TTITLE1=(intro) The Bed
TTITLE2=Day To Day Featuring APANI B
TTITLE3=The Lyricist Featuring J-LIVE
TTITLE4=The Monotone MC's (version 1.0) .sit
TTITLE5=Phone Bizness Featuring MR.COMPLEX
TTITLE6=Record Lovers
TTITLE7=The Time is Right Featuring ASHERU OF THE UNSPORKEN HEARD
TTITLE8=The Time is Right (Mother Chunker Remix)
TTITLE9=The Lyricist Remix Featuring J-LIVE
EXTD=YEAR: 2002
EXTT0=
EXTT1=
EXTT2=
EXTT3=
EXTT4=
EXTT5=
EXTT6=
EXTT7=
EXTT8=
EXTT9=
PLAYORDER=
